<?xml version="1.0" encoding="UTF-8"?>
<svg width="30px" height="28px" viewBox="0 0 30 28" version="1.1" xmlns="http://www.w3.org/2000/svg" xmlns:xlink="http://www.w3.org/1999/xlink">
    <title>􀊵</title>
    <g id="App-Map" stroke="none" stroke-width="1" fill="none" fill-rule="evenodd">
        <g id="􀊵" transform="translate(-3.7845, -5.1063)" fill="#BA0B0B" fill-rule="nonzero">
            <path d="M18.8022461,32.3251953 C18.6557617,32.3251953 18.4824219,32.2836914 18.2822266,32.2006836 C18.0820312,32.1176758 17.9038086,32.0273438 17.7475586,31.9296875 C14.9936523,30.171875 12.605957,28.3286133 10.5844727,26.3999023 C8.56298828,24.4711914 7.00292969,22.4887695 5.90429688,20.4526367 C4.80566406,18.4165039 4.25634766,16.3583984 4.25634766,14.2783203 C4.25634766,12.9794922 4.46386719,11.7905273 4.87890625,10.7114258 C5.29394531,9.63232422 5.87255859,8.69726563 6.61474609,7.90625 C7.35693359,7.11523438 8.22119141,6.50488281 9.20751953,6.07519531 C10.1938477,5.64550781 11.2631836,5.43066406 12.4155273,5.43066406 C13.8510742,5.43066406 15.1108398,5.796875 16.1948242,6.52929688 C17.2788086,7.26171875 18.1479492,8.22851563 18.8022461,9.4296875 C19.4663086,8.21875 20.340332,7.24951172 21.4243164,6.52197266 C22.5083008,5.79443359 23.7631836,5.43066406 25.1889648,5.43066406 C26.3413086,5.43066406 27.4130859,5.64550781 28.4042969,6.07519531 C29.3955078,6.50488281 30.2597656,7.11523438 30.9970703,7.90625 C31.734375,8.69726563 32.3105469,9.63232422 32.7255859,10.7114258 C33.140625,11.7905273 33.3481445,12.9794922 33.3481445,14.2783203 C33.3481445,16.3583984 32.7988281,18.4165039 31.7001953,20.4526367 C30.6015625,22.4887695 29.0439453,24.4711914 27.0273438,26.3999023 C25.0107422,28.3286133 22.6254883,30.171875 19.871582,31.9296875 C19.715332,32.0273438 19.5371094,32.1176758 19.3369141,32.2006836 C19.1367187,32.2836914 18.9584961,32.3251953 18.8022461,32.3251953 Z" id="Path"></path>
        </g>
    </g>
</svg>