<?xml version="1.0" encoding="UTF-8"?>
<svg width="30px" height="28px" viewBox="0 0 30 28" version="1.1" xmlns="http://www.w3.org/2000/svg" xmlns:xlink="http://www.w3.org/1999/xlink">
    <title>􀊵</title>
    <g id="App-Map" stroke="none" stroke-width="1" fill="none" fill-rule="evenodd">
        <g id="􀊵" transform="translate(-3.2845, -5.1063)" fill="#29903F" fill-rule="nonzero">
            <path d="M18.3022461,32.3251953 C18.1557617,32.3251953 17.9824219,32.2836914 17.7822266,32.2006836 C17.5820312,32.1176758 17.4038086,32.0273438 17.2475586,31.9296875 C14.4936523,30.171875 12.105957,28.3286133 10.0844727,26.3999023 C8.06298828,24.4711914 6.50292969,22.4887695 5.40429688,20.4526367 C4.30566406,18.4165039 3.75634766,16.3583984 3.75634766,14.2783203 C3.75634766,12.9794922 3.96386719,11.7905273 4.37890625,10.7114258 C4.79394531,9.63232422 5.37255859,8.69726563 6.11474609,7.90625 C6.85693359,7.11523438 7.72119141,6.50488281 8.70751953,6.07519531 C9.69384766,5.64550781 10.7631836,5.43066406 11.9155273,5.43066406 C13.3510742,5.43066406 14.6108398,5.796875 15.6948242,6.52929688 C16.7788086,7.26171875 17.6479492,8.22851563 18.3022461,9.4296875 C18.9663086,8.21875 19.840332,7.24951172 20.9243164,6.52197266 C22.0083008,5.79443359 23.2631836,5.43066406 24.6889648,5.43066406 C25.8413086,5.43066406 26.9130859,5.64550781 27.9042969,6.07519531 C28.8955078,6.50488281 29.7597656,7.11523438 30.4970703,7.90625 C31.234375,8.69726563 31.8105469,9.63232422 32.2255859,10.7114258 C32.640625,11.7905273 32.8481445,12.9794922 32.8481445,14.2783203 C32.8481445,16.3583984 32.2988281,18.4165039 31.2001953,20.4526367 C30.1015625,22.4887695 28.5439453,24.4711914 26.5273438,26.3999023 C24.5107422,28.3286133 22.1254883,30.171875 19.371582,31.9296875 C19.215332,32.0273438 19.0371094,32.1176758 18.8369141,32.2006836 C18.6367187,32.2836914 18.4584961,32.3251953 18.3022461,32.3251953 Z" id="Path"></path>
        </g>
    </g>
</svg>